<?xml version="1.0" standalone="no"?>
 <!DOCTYPE svg PUBLIC "-//W3C//DTD SVG 1.1//EN" 
 "http://www.w3.org/Graphics/SVG/1.1/DTD/svg11.dtd"> 
<svg xmlns="http://www.w3.org/2000/svg" version="1.1" 
    width="29.7002cm" height="21.0007cm" viewBox="0 0 116930 82680 ">
<title>SVG Picture created as LED-JK3030.svg date 2018/07/01 18:12:58 </title>
  <desc>Picture generated by Eeschema-SVG </desc>
<g style="fill:#000000; fill-opacity:1;stroke:#000000; stroke-opacity:1;
stroke-linecap:round; stroke-linejoin:round; "
 transform="translate(0 0) scale(1 1)">
</g>
<g style="fill:#000000; fill-opacity:0.0; 
stroke:#000000; stroke-width:-10; stroke-opacity:1; 
stroke-linecap:round; stroke-linejoin:round;">
</g>
<g style="fill:#840000; fill-opacity:0.0; 
stroke:#840000; stroke-width:-10; stroke-opacity:1; 
stroke-linecap:round; stroke-linejoin:round;">
</g>
<g style="fill:#840000; fill-opacity:0.0; 
stroke:#840000; stroke-width:100; stroke-opacity:1; 
stroke-linecap:round; stroke-linejoin:round;">
</g>
<g style="fill:#840000; fill-opacity:0.0; 
stroke:#840000; stroke-width:60; stroke-opacity:1; 
stroke-linecap:round; stroke-linejoin:round;">
<rect x="69690" y="65360" width="42520" height="12600" rx="0" />
</g>
<g style="fill:#840000; fill-opacity:0.0; 
stroke:#840000; stroke-width:100; stroke-opacity:1; 
stroke-linecap:round; stroke-linejoin:round;">
</g>
<g style="fill:#840000; fill-opacity:0.0; 
stroke:#840000; stroke-width:60; stroke-opacity:1; 
stroke-linecap:round; stroke-linejoin:round;">
<rect x="3940" y="3940" width="109050" height="74800" rx="0" />
</g>
<g style="fill:#840000; fill-opacity:0.0; 
stroke:#840000; stroke-width:100; stroke-opacity:1; 
stroke-linecap:round; stroke-linejoin:round;">
</g>
<g style="fill:#840000; fill-opacity:0.0; 
stroke:#840000; stroke-width:60; stroke-opacity:1; 
stroke-linecap:round; stroke-linejoin:round;">
<rect x="4720" y="4720" width="107490" height="73240" rx="0" />
</g>
<g style="fill:#840000; fill-opacity:0.0; 
stroke:#840000; stroke-width:100; stroke-opacity:1; 
stroke-linecap:round; stroke-linejoin:round;">
</g>
<g style="fill:#840000; fill-opacity:0.0; 
stroke:#840000; stroke-width:60; stroke-opacity:1; 
stroke-linecap:round; stroke-linejoin:round;">
<path d="M23620 4720
L23620 3940
" />
</g>
<g style="fill:#840000; fill-opacity:0.0; 
stroke:#840000; stroke-width:100; stroke-opacity:1; 
stroke-linecap:round; stroke-linejoin:round;">
</g>
<g style="fill:#840000; fill-opacity:0.0; 
stroke:#840000; stroke-width:60; stroke-opacity:1; 
stroke-linecap:round; stroke-linejoin:round;">
<path d="M43310 4720
L43310 3940
" />
</g>
<g style="fill:#840000; fill-opacity:0.0; 
stroke:#840000; stroke-width:100; stroke-opacity:1; 
stroke-linecap:round; stroke-linejoin:round;">
</g>
<g style="fill:#840000; fill-opacity:0.0; 
stroke:#840000; stroke-width:60; stroke-opacity:1; 
stroke-linecap:round; stroke-linejoin:round;">
<path d="M62990 4720
L62990 3940
" />
</g>
<g style="fill:#840000; fill-opacity:0.0; 
stroke:#840000; stroke-width:100; stroke-opacity:1; 
stroke-linecap:round; stroke-linejoin:round;">
</g>
<g style="fill:#840000; fill-opacity:0.0; 
stroke:#840000; stroke-width:60; stroke-opacity:1; 
stroke-linecap:round; stroke-linejoin:round;">
<path d="M82680 4720
L82680 3940
" />
</g>
<g style="fill:#840000; fill-opacity:0.0; 
stroke:#840000; stroke-width:100; stroke-opacity:1; 
stroke-linecap:round; stroke-linejoin:round;">
</g>
<g style="fill:#840000; fill-opacity:0.0; 
stroke:#840000; stroke-width:60; stroke-opacity:1; 
stroke-linecap:round; stroke-linejoin:round;">
<path d="M102360 4720
L102360 3940
" />
</g>
<g style="fill:#840000; fill-opacity:0.0; 
stroke:#840000; stroke-width:100; stroke-opacity:1; 
stroke-linecap:round; stroke-linejoin:round;">
</g>
<g style="fill:#840000; fill-opacity:0.0; 
stroke:#840000; stroke-width:60; stroke-opacity:1; 
stroke-linecap:round; stroke-linejoin:round;">
<path d="M14170 4560
L13880 4560
" />
<path d="M14020 4560
L14020 4050
L13970 4120
L13930 4170
L13880 4190
" />
</g>
<g style="fill:#840000; fill-opacity:0.0; 
stroke:#840000; stroke-width:100; stroke-opacity:1; 
stroke-linecap:round; stroke-linejoin:round;">
</g>
<g style="fill:#840000; fill-opacity:0.0; 
stroke:#840000; stroke-width:60; stroke-opacity:1; 
stroke-linecap:round; stroke-linejoin:round;">
<path d="M33560 4090
L33580 4070
L33630 4050
L33750 4050
L33800 4070
L33820 4090
L33850 4140
L33850 4190
L33820 4260
L33530 4560
L33850 4560
" />
</g>
<g style="fill:#840000; fill-opacity:0.0; 
stroke:#840000; stroke-width:100; stroke-opacity:1; 
stroke-linecap:round; stroke-linejoin:round;">
</g>
<g style="fill:#840000; fill-opacity:0.0; 
stroke:#840000; stroke-width:60; stroke-opacity:1; 
stroke-linecap:round; stroke-linejoin:round;">
<path d="M53220 4050
L53540 4050
L53370 4240
L53440 4240
L53490 4260
L53510 4290
L53540 4340
L53540 4460
L53510 4510
L53490 4530
L53440 4560
L53300 4560
L53250 4530
L53220 4510
" />
</g>
<g style="fill:#840000; fill-opacity:0.0; 
stroke:#840000; stroke-width:100; stroke-opacity:1; 
stroke-linecap:round; stroke-linejoin:round;">
</g>
<g style="fill:#840000; fill-opacity:0.0; 
stroke:#840000; stroke-width:60; stroke-opacity:1; 
stroke-linecap:round; stroke-linejoin:round;">
<path d="M73170 4220
L73170 4560
" />
<path d="M73050 4020
L72930 4390
L73240 4390
" />
</g>
<g style="fill:#840000; fill-opacity:0.0; 
stroke:#840000; stroke-width:100; stroke-opacity:1; 
stroke-linecap:round; stroke-linejoin:round;">
</g>
<g style="fill:#840000; fill-opacity:0.0; 
stroke:#840000; stroke-width:60; stroke-opacity:1; 
stroke-linecap:round; stroke-linejoin:round;">
<path d="M92880 4050
L92640 4050
L92620 4290
L92640 4260
L92690 4240
L92810 4240
L92860 4260
L92880 4290
L92910 4340
L92910 4460
L92880 4510
L92860 4530
L92810 4560
L92690 4560
L92640 4530
L92620 4510
" />
</g>
<g style="fill:#840000; fill-opacity:0.0; 
stroke:#840000; stroke-width:100; stroke-opacity:1; 
stroke-linecap:round; stroke-linejoin:round;">
</g>
<g style="fill:#840000; fill-opacity:0.0; 
stroke:#840000; stroke-width:60; stroke-opacity:1; 
stroke-linecap:round; stroke-linejoin:round;">
<path d="M112540 4050
L112440 4050
L112390 4070
L112370 4090
L112320 4170
L112300 4260
L112300 4460
L112320 4510
L112350 4530
L112390 4560
L112490 4560
L112540 4530
L112560 4510
L112590 4460
L112590 4340
L112560 4290
L112540 4260
L112490 4240
L112390 4240
L112350 4260
L112320 4290
L112300 4340
" />
</g>
<g style="fill:#840000; fill-opacity:0.0; 
stroke:#840000; stroke-width:100; stroke-opacity:1; 
stroke-linecap:round; stroke-linejoin:round;">
</g>
<g style="fill:#840000; fill-opacity:0.0; 
stroke:#840000; stroke-width:60; stroke-opacity:1; 
stroke-linecap:round; stroke-linejoin:round;">
<path d="M23620 77960
L23620 78740
" />
</g>
<g style="fill:#840000; fill-opacity:0.0; 
stroke:#840000; stroke-width:100; stroke-opacity:1; 
stroke-linecap:round; stroke-linejoin:round;">
</g>
<g style="fill:#840000; fill-opacity:0.0; 
stroke:#840000; stroke-width:60; stroke-opacity:1; 
stroke-linecap:round; stroke-linejoin:round;">
<path d="M43310 77960
L43310 78740
" />
</g>
<g style="fill:#840000; fill-opacity:0.0; 
stroke:#840000; stroke-width:100; stroke-opacity:1; 
stroke-linecap:round; stroke-linejoin:round;">
</g>
<g style="fill:#840000; fill-opacity:0.0; 
stroke:#840000; stroke-width:60; stroke-opacity:1; 
stroke-linecap:round; stroke-linejoin:round;">
<path d="M62990 77960
L62990 78740
" />
</g>
<g style="fill:#840000; fill-opacity:0.0; 
stroke:#840000; stroke-width:100; stroke-opacity:1; 
stroke-linecap:round; stroke-linejoin:round;">
</g>
<g style="fill:#840000; fill-opacity:0.0; 
stroke:#840000; stroke-width:60; stroke-opacity:1; 
stroke-linecap:round; stroke-linejoin:round;">
<path d="M82680 77960
L82680 78740
" />
</g>
<g style="fill:#840000; fill-opacity:0.0; 
stroke:#840000; stroke-width:100; stroke-opacity:1; 
stroke-linecap:round; stroke-linejoin:round;">
</g>
<g style="fill:#840000; fill-opacity:0.0; 
stroke:#840000; stroke-width:60; stroke-opacity:1; 
stroke-linecap:round; stroke-linejoin:round;">
<path d="M102360 77960
L102360 78740
" />
</g>
<g style="fill:#840000; fill-opacity:0.0; 
stroke:#840000; stroke-width:100; stroke-opacity:1; 
stroke-linecap:round; stroke-linejoin:round;">
</g>
<g style="fill:#840000; fill-opacity:0.0; 
stroke:#840000; stroke-width:60; stroke-opacity:1; 
stroke-linecap:round; stroke-linejoin:round;">
<path d="M14170 78580
L13880 78580
" />
<path d="M14020 78580
L14020 78070
L13970 78140
L13930 78190
L13880 78210
" />
</g>
<g style="fill:#840000; fill-opacity:0.0; 
stroke:#840000; stroke-width:100; stroke-opacity:1; 
stroke-linecap:round; stroke-linejoin:round;">
</g>
<g style="fill:#840000; fill-opacity:0.0; 
stroke:#840000; stroke-width:60; stroke-opacity:1; 
stroke-linecap:round; stroke-linejoin:round;">
<path d="M33560 78110
L33580 78090
L33630 78070
L33750 78070
L33800 78090
L33820 78110
L33850 78160
L33850 78210
L33820 78280
L33530 78580
L33850 78580
" />
</g>
<g style="fill:#840000; fill-opacity:0.0; 
stroke:#840000; stroke-width:100; stroke-opacity:1; 
stroke-linecap:round; stroke-linejoin:round;">
</g>
<g style="fill:#840000; fill-opacity:0.0; 
stroke:#840000; stroke-width:60; stroke-opacity:1; 
stroke-linecap:round; stroke-linejoin:round;">
<path d="M53220 78070
L53540 78070
L53370 78260
L53440 78260
L53490 78280
L53510 78310
L53540 78360
L53540 78480
L53510 78530
L53490 78550
L53440 78580
L53300 78580
L53250 78550
L53220 78530
" />
</g>
<g style="fill:#840000; fill-opacity:0.0; 
stroke:#840000; stroke-width:100; stroke-opacity:1; 
stroke-linecap:round; stroke-linejoin:round;">
</g>
<g style="fill:#840000; fill-opacity:0.0; 
stroke:#840000; stroke-width:60; stroke-opacity:1; 
stroke-linecap:round; stroke-linejoin:round;">
<path d="M73170 78240
L73170 78580
" />
<path d="M73050 78040
L72930 78410
L73240 78410
" />
</g>
<g style="fill:#840000; fill-opacity:0.0; 
stroke:#840000; stroke-width:100; stroke-opacity:1; 
stroke-linecap:round; stroke-linejoin:round;">
</g>
<g style="fill:#840000; fill-opacity:0.0; 
stroke:#840000; stroke-width:60; stroke-opacity:1; 
stroke-linecap:round; stroke-linejoin:round;">
<path d="M92880 78070
L92640 78070
L92620 78310
L92640 78280
L92690 78260
L92810 78260
L92860 78280
L92880 78310
L92910 78360
L92910 78480
L92880 78530
L92860 78550
L92810 78580
L92690 78580
L92640 78550
L92620 78530
" />
</g>
<g style="fill:#840000; fill-opacity:0.0; 
stroke:#840000; stroke-width:100; stroke-opacity:1; 
stroke-linecap:round; stroke-linejoin:round;">
</g>
<g style="fill:#840000; fill-opacity:0.0; 
stroke:#840000; stroke-width:60; stroke-opacity:1; 
stroke-linecap:round; stroke-linejoin:round;">
<path d="M112540 78070
L112440 78070
L112390 78090
L112370 78110
L112320 78190
L112300 78280
L112300 78480
L112320 78530
L112350 78550
L112390 78580
L112490 78580
L112540 78550
L112560 78530
L112590 78480
L112590 78360
L112560 78310
L112540 78280
L112490 78260
L112390 78260
L112350 78280
L112320 78310
L112300 78360
" />
</g>
<g style="fill:#840000; fill-opacity:0.0; 
stroke:#840000; stroke-width:100; stroke-opacity:1; 
stroke-linecap:round; stroke-linejoin:round;">
</g>
<g style="fill:#840000; fill-opacity:0.0; 
stroke:#840000; stroke-width:60; stroke-opacity:1; 
stroke-linecap:round; stroke-linejoin:round;">
<path d="M3940 23620
L4720 23620
" />
</g>
<g style="fill:#840000; fill-opacity:0.0; 
stroke:#840000; stroke-width:100; stroke-opacity:1; 
stroke-linecap:round; stroke-linejoin:round;">
</g>
<g style="fill:#840000; fill-opacity:0.0; 
stroke:#840000; stroke-width:60; stroke-opacity:1; 
stroke-linecap:round; stroke-linejoin:round;">
<path d="M3940 43310
L4720 43310
" />
</g>
<g style="fill:#840000; fill-opacity:0.0; 
stroke:#840000; stroke-width:100; stroke-opacity:1; 
stroke-linecap:round; stroke-linejoin:round;">
</g>
<g style="fill:#840000; fill-opacity:0.0; 
stroke:#840000; stroke-width:60; stroke-opacity:1; 
stroke-linecap:round; stroke-linejoin:round;">
<path d="M3940 62990
L4720 62990
" />
</g>
<g style="fill:#840000; fill-opacity:0.0; 
stroke:#840000; stroke-width:100; stroke-opacity:1; 
stroke-linecap:round; stroke-linejoin:round;">
</g>
<g style="fill:#840000; fill-opacity:0.0; 
stroke:#840000; stroke-width:60; stroke-opacity:1; 
stroke-linecap:round; stroke-linejoin:round;">
<path d="M4210 13860
L4450 13860
" />
<path d="M4160 14010
L4330 13500
L4500 14010
" />
</g>
<g style="fill:#840000; fill-opacity:0.0; 
stroke:#840000; stroke-width:100; stroke-opacity:1; 
stroke-linecap:round; stroke-linejoin:round;">
</g>
<g style="fill:#840000; fill-opacity:0.0; 
stroke:#840000; stroke-width:60; stroke-opacity:1; 
stroke-linecap:round; stroke-linejoin:round;">
<path d="M4370 33420
L4440 33440
L4470 33470
L4490 33520
L4490 33590
L4470 33640
L4440 33660
L4400 33690
L4200 33690
L4200 33180
L4370 33180
L4420 33200
L4440 33220
L4470 33270
L4470 33320
L4440 33370
L4420 33390
L4370 33420
L4200 33420
" />
</g>
<g style="fill:#840000; fill-opacity:0.0; 
stroke:#840000; stroke-width:100; stroke-opacity:1; 
stroke-linecap:round; stroke-linejoin:round;">
</g>
<g style="fill:#840000; fill-opacity:0.0; 
stroke:#840000; stroke-width:60; stroke-opacity:1; 
stroke-linecap:round; stroke-linejoin:round;">
<path d="M4490 53330
L4470 53350
L4400 53380
L4350 53380
L4270 53350
L4230 53300
L4200 53250
L4180 53160
L4180 53080
L4200 52990
L4230 52940
L4270 52890
L4350 52870
L4400 52870
L4470 52890
L4490 52910
" />
</g>
<g style="fill:#840000; fill-opacity:0.0; 
stroke:#840000; stroke-width:100; stroke-opacity:1; 
stroke-linecap:round; stroke-linejoin:round;">
</g>
<g style="fill:#840000; fill-opacity:0.0; 
stroke:#840000; stroke-width:60; stroke-opacity:1; 
stroke-linecap:round; stroke-linejoin:round;">
<path d="M4200 73060
L4200 72550
L4320 72550
L4400 72570
L4440 72620
L4470 72670
L4490 72760
L4490 72840
L4470 72930
L4440 72980
L4400 73030
L4320 73060
L4200 73060
" />
</g>
<g style="fill:#840000; fill-opacity:0.0; 
stroke:#840000; stroke-width:100; stroke-opacity:1; 
stroke-linecap:round; stroke-linejoin:round;">
</g>
<g style="fill:#840000; fill-opacity:0.0; 
stroke:#840000; stroke-width:60; stroke-opacity:1; 
stroke-linecap:round; stroke-linejoin:round;">
<path d="M112990 23620
L112210 23620
" />
</g>
<g style="fill:#840000; fill-opacity:0.0; 
stroke:#840000; stroke-width:100; stroke-opacity:1; 
stroke-linecap:round; stroke-linejoin:round;">
</g>
<g style="fill:#840000; fill-opacity:0.0; 
stroke:#840000; stroke-width:60; stroke-opacity:1; 
stroke-linecap:round; stroke-linejoin:round;">
<path d="M112990 43310
L112210 43310
" />
</g>
<g style="fill:#840000; fill-opacity:0.0; 
stroke:#840000; stroke-width:100; stroke-opacity:1; 
stroke-linecap:round; stroke-linejoin:round;">
</g>
<g style="fill:#840000; fill-opacity:0.0; 
stroke:#840000; stroke-width:60; stroke-opacity:1; 
stroke-linecap:round; stroke-linejoin:round;">
<path d="M112990 62990
L112210 62990
" />
</g>
<g style="fill:#840000; fill-opacity:0.0; 
stroke:#840000; stroke-width:100; stroke-opacity:1; 
stroke-linecap:round; stroke-linejoin:round;">
</g>
<g style="fill:#840000; fill-opacity:0.0; 
stroke:#840000; stroke-width:60; stroke-opacity:1; 
stroke-linecap:round; stroke-linejoin:round;">
<path d="M112480 13860
L112720 13860
" />
<path d="M112430 14010
L112600 13500
L112770 14010
" />
</g>
<g style="fill:#840000; fill-opacity:0.0; 
stroke:#840000; stroke-width:100; stroke-opacity:1; 
stroke-linecap:round; stroke-linejoin:round;">
</g>
<g style="fill:#840000; fill-opacity:0.0; 
stroke:#840000; stroke-width:60; stroke-opacity:1; 
stroke-linecap:round; stroke-linejoin:round;">
<path d="M112640 33420
L112710 33440
L112740 33470
L112760 33520
L112760 33590
L112740 33640
L112710 33660
L112670 33690
L112470 33690
L112470 33180
L112640 33180
L112690 33200
L112710 33220
L112740 33270
L112740 33320
L112710 33370
L112690 33390
L112640 33420
L112470 33420
" />
</g>
<g style="fill:#840000; fill-opacity:0.0; 
stroke:#840000; stroke-width:100; stroke-opacity:1; 
stroke-linecap:round; stroke-linejoin:round;">
</g>
<g style="fill:#840000; fill-opacity:0.0; 
stroke:#840000; stroke-width:60; stroke-opacity:1; 
stroke-linecap:round; stroke-linejoin:round;">
<path d="M112760 53330
L112740 53350
L112670 53380
L112620 53380
L112540 53350
L112500 53300
L112470 53250
L112450 53160
L112450 53080
L112470 52990
L112500 52940
L112540 52890
L112620 52870
L112670 52870
L112740 52890
L112760 52910
" />
</g>
<g style="fill:#840000; fill-opacity:0.0; 
stroke:#840000; stroke-width:100; stroke-opacity:1; 
stroke-linecap:round; stroke-linejoin:round;">
</g>
<g style="fill:#840000; fill-opacity:0.0; 
stroke:#840000; stroke-width:60; stroke-opacity:1; 
stroke-linecap:round; stroke-linejoin:round;">
<path d="M112470 73060
L112470 72550
L112590 72550
L112670 72570
L112710 72620
L112740 72670
L112760 72760
L112760 72840
L112740 72930
L112710 72980
L112670 73030
L112590 73060
L112470 73060
" />
</g>
<g style="fill:#840000; fill-opacity:0.0; 
stroke:#840000; stroke-width:100; stroke-opacity:1; 
stroke-linecap:round; stroke-linejoin:round;">
</g>
<g style="fill:#840000; fill-opacity:0.0; 
stroke:#840000; stroke-width:60; stroke-opacity:1; 
stroke-linecap:round; stroke-linejoin:round;">
<path d="M78880 76290
L78880 75700
L79020 75700
L79110 75730
L79160 75790
L79190 75840
L79220 75950
L79220 76040
L79190 76150
L79160 76210
L79110 76260
L79020 76290
L78880 76290
" />
<path d="M79720 76290
L79720 75980
L79700 75930
L79640 75900
L79530 75900
L79470 75930
" />
<path d="M79720 76260
L79670 76290
L79530 76290
L79470 76260
L79440 76210
L79440 76150
L79470 76100
L79530 76070
L79670 76070
L79720 76040
" />
<path d="M79920 75900
L80140 75900
" />
<path d="M80000 75700
L80000 76210
L80030 76260
L80080 76290
L80140 76290
" />
<path d="M80570 76260
L80510 76290
L80400 76290
L80340 76260
L80310 76210
L80310 75980
L80340 75930
L80400 75900
L80510 75900
L80570 75930
L80590 75980
L80590 76040
L80310 76100
" />
<path d="M80850 76240
L80880 76260
L80850 76290
L80820 76260
L80850 76240
L80850 76290
" />
<path d="M80850 75930
L80880 75950
L80850 75980
L80820 75950
L80850 75930
L80850 75980
" />
<path d="M81550 75760
L81580 75730
L81640 75700
L81780 75700
L81830 75730
L81860 75760
L81890 75810
L81890 75870
L81860 75950
L81520 76290
L81890 76290
" />
<path d="M82250 75700
L82310 75700
L82370 75730
L82390 75760
L82420 75810
L82450 75930
L82450 76070
L82420 76180
L82390 76240
L82370 76260
L82310 76290
L82250 76290
L82200 76260
L82170 76240
L82140 76180
L82110 76070
L82110 75930
L82140 75810
L82170 75760
L82200 75730
L82250 75700
" />
<path d="M83010 76290
L82670 76290
" />
<path d="M82840 76290
L82840 75700
L82780 75790
L82730 75840
L82670 75870
" />
<path d="M83340 75950
L83290 75930
L83260 75900
L83230 75840
L83230 75810
L83260 75760
L83290 75730
L83340 75700
L83460 75700
L83510 75730
L83540 75760
L83570 75810
L83570 75840
L83540 75900
L83510 75930
L83460 75950
L83340 75950
L83290 75980
L83260 76010
L83230 76070
L83230 76180
L83260 76240
L83290 76260
L83340 76290
L83460 76290
L83510 76260
L83540 76240
L83570 76180
L83570 76070
L83540 76010
L83510 75980
L83460 75950
" />
<path d="M83820 76070
L84270 76070
" />
<path d="M84660 75700
L84720 75700
L84780 75730
L84800 75760
L84830 75810
L84860 75930
L84860 76070
L84830 76180
L84800 76240
L84780 76260
L84720 76290
L84660 76290
L84610 76260
L84580 76240
L84550 76180
L84520 76070
L84520 75930
L84550 75810
L84580 75760
L84610 75730
L84660 75700
" />
<path d="M85050 75700
L85450 75700
L85190 76290
" />
<path d="M85670 76070
L86120 76070
" />
<path d="M86510 75700
L86570 75700
L86630 75730
L86650 75760
L86680 75810
L86710 75930
L86710 76070
L86680 76180
L86650 76240
L86630 76260
L86570 76290
L86510 76290
L86460 76260
L86430 76240
L86400 76180
L86370 76070
L86370 75930
L86400 75810
L86430 75760
L86460 75730
L86510 75700
" />
<path d="M87270 76290
L86930 76290
" />
<path d="M87100 76290
L87100 75700
L87040 75790
L86990 75840
L86930 75870
" />
</g>
<g style="fill:#840000; fill-opacity:0.0; 
stroke:#840000; stroke-width:100; stroke-opacity:1; 
stroke-linecap:round; stroke-linejoin:round;">
</g>
<g style="fill:#840000; fill-opacity:0.0; 
stroke:#840000; stroke-width:60; stroke-opacity:1; 
stroke-linecap:round; stroke-linejoin:round;">
<path d="M69690 76580
L112210 76580
" />
</g>
<g style="fill:#840000; fill-opacity:0.0; 
stroke:#840000; stroke-width:100; stroke-opacity:1; 
stroke-linecap:round; stroke-linejoin:round;">
</g>
<g style="fill:#840000; fill-opacity:0.0; 
stroke:#840000; stroke-width:60; stroke-opacity:1; 
stroke-linecap:round; stroke-linejoin:round;">
<path d="M70220 77390
L70220 76800
" />
<path d="M70560 77390
L70300 77050
" />
<path d="M70560 76800
L70220 77140
" />
<path d="M70810 77390
L70810 77000
" />
<path d="M70810 76800
L70780 76830
L70810 76860
L70840 76830
L70810 76800
L70810 76860
" />
<path d="M71430 77340
L71400 77360
L71320 77390
L71260 77390
L71170 77360
L71120 77310
L71090 77250
L71060 77140
L71060 77050
L71090 76940
L71120 76890
L71170 76830
L71260 76800
L71320 76800
L71400 76830
L71430 76860
" />
<path d="M71930 77390
L71930 77080
L71910 77030
L71850 77000
L71740 77000
L71680 77030
" />
<path d="M71930 77360
L71880 77390
L71740 77390
L71680 77360
L71650 77310
L71650 77250
L71680 77200
L71740 77170
L71880 77170
L71930 77140
" />
<path d="M72460 77390
L72460 76800
" />
<path d="M72460 77360
L72410 77390
L72290 77390
L72240 77360
L72210 77340
L72180 77280
L72180 77110
L72210 77050
L72240 77030
L72290 77000
L72410 77000
L72460 77030
" />
<path d="M73190 77080
L73390 77080
" />
<path d="M73470 77390
L73190 77390
L73190 76800
L73470 76800
" />
<path d="M73720 77340
L73750 77360
L73720 77390
L73690 77360
L73720 77340
L73720 77390
" />
<path d="M74000 77390
L74000 76800
L74140 76800
L74230 76830
L74280 76890
L74310 76940
L74340 77050
L74340 77140
L74310 77250
L74280 77310
L74230 77360
L74140 77390
L74000 77390
" />
<path d="M74590 77340
L74620 77360
L74590 77390
L74560 77360
L74590 77340
L74590 77390
" />
<path d="M74840 77220
L75120 77220
" />
<path d="M74790 77390
L74980 76800
L75180 77390
" />
<path d="M75380 77340
L75410 77360
L75380 77390
L75350 77360
L75380 77340
L75380 77390
" />
<path d="M76560 77390
L76560 76800
" />
<path d="M76620 77170
L76790 77390
" />
<path d="M76790 77000
L76560 77220
" />
<path d="M77040 77390
L77040 77000
" />
<path d="M77040 76800
L77010 76830
L77040 76860
L77070 76830
L77040 76800
L77040 76860
" />
<path d="M77570 77360
L77520 77390
L77400 77390
L77350 77360
L77320 77340
L77290 77280
L77290 77110
L77320 77050
L77350 77030
L77400 77000
L77520 77000
L77570 77030
" />
<path d="M78080 77390
L78080 77080
L78060 77030
L78000 77000
L77890 77000
L77830 77030
" />
<path d="M78080 77360
L78030 77390
L77890 77390
L77830 77360
L77800 77310
L77800 77250
L77830 77200
L77890 77170
L78030 77170
L78080 77140
" />
<path d="M78610 77390
L78610 76800
" />
<path d="M78610 77360
L78560 77390
L78440 77390
L78390 77360
L78360 77340
L78330 77280
L78330 77110
L78360 77050
L78390 77030
L78440 77000
L78560 77000
L78610 77030
" />
<path d="M79590 77000
L79590 77390
" />
<path d="M79450 76770
L79310 77200
L79680 77200
" />
<path d="M79900 77340
L79930 77360
L79900 77390
L79870 77360
L79900 77340
L79900 77390
" />
<path d="M80290 76800
L80350 76800
L80410 76830
L80430 76860
L80460 76910
L80490 77030
L80490 77170
L80460 77280
L80430 77340
L80410 77360
L80350 77390
L80290 77390
L80240 77360
L80210 77340
L80180 77280
L80150 77170
L80150 77030
L80180 76910
L80210 76860
L80240 76830
L80290 76800
" />
<path d="M80740 77340
L80770 77360
L80740 77390
L80710 77360
L80740 77340
L80740 77390
" />
<path d="M81270 76800
L81160 76800
L81100 76830
L81080 76860
L81020 76940
L80990 77050
L80990 77280
L81020 77340
L81050 77360
L81100 77390
L81220 77390
L81270 77360
L81300 77340
L81330 77280
L81330 77140
L81300 77080
L81270 77050
L81220 77030
L81100 77030
L81050 77050
L81020 77080
L80990 77140
" />
<path d="M81580 77170
L82030 77170
" />
<path d="M81810 77390
L81810 76940
" />
<path d="M82560 77390
L82560 76800
" />
<path d="M82560 77360
L82510 77390
L82390 77390
L82340 77360
L82310 77340
L82280 77280
L82280 77110
L82310 77050
L82340 77030
L82390 77000
L82510 77000
L82560 77030
" />
<path d="M82760 77000
L82980 77000
" />
<path d="M82840 77390
L82840 76890
L82870 76830
L82920 76800
L82980 76800
" />
<path d="M83150 77360
L83210 77390
L83320 77390
L83380 77360
L83410 77310
L83410 77280
L83380 77220
L83320 77200
L83240 77200
L83180 77170
L83150 77110
L83150 77080
L83180 77030
L83240 77000
L83320 77000
L83380 77030
" />
<path d="M83910 77000
L83910 77480
L83890 77530
L83860 77560
L83800 77590
L83720 77590
L83660 77560
" />
<path d="M83910 77360
L83860 77390
L83740 77390
L83690 77360
L83660 77340
L83630 77280
L83630 77110
L83660 77050
L83690 77030
L83740 77000
L83860 77000
L83910 77030
" />
<path d="M84500 77390
L84160 77390
" />
<path d="M84330 77390
L84330 76800
L84270 76890
L84220 76940
L84160 76970
" />
<path d="M84750 77170
L85200 77170
" />
<path d="M85790 77390
L85450 77390
" />
<path d="M85620 77390
L85620 76800
L85560 76890
L85510 76940
L85450 76970
" />
</g>
<g style="fill:#840000; fill-opacity:0.0; 
stroke:#840000; stroke-width:100; stroke-opacity:1; 
stroke-linecap:round; stroke-linejoin:round;">
</g>
<g style="fill:#840000; fill-opacity:0.0; 
stroke:#840000; stroke-width:60; stroke-opacity:1; 
stroke-linecap:round; stroke-linejoin:round;">
<path d="M69690 75400
L112210 75400
" />
</g>
<g style="fill:#840000; fill-opacity:0.0; 
stroke:#840000; stroke-width:100; stroke-opacity:1; 
stroke-linecap:round; stroke-linejoin:round;">
</g>
<g style="fill:#840000; fill-opacity:0.0; 
stroke:#840000; stroke-width:120; stroke-opacity:1; 
stroke-linecap:round; stroke-linejoin:round;">
<path d="M104020 76290
L103820 76010
" />
<path d="M103680 76290
L103680 75700
L103910 75700
L103960 75730
L103990 75760
L104020 75810
L104020 75900
L103990 75950
L103960 75980
L103910 76010
L103680 76010
" />
<path d="M104500 76260
L104440 76290
L104330 76290
L104270 76260
L104240 76210
L104240 75980
L104270 75930
L104330 75900
L104440 75900
L104500 75930
L104520 75980
L104520 76040
L104240 76100
" />
<path d="M104720 75900
L104860 76290
L105010 75900
" />
<path d="M105230 76240
L105260 76260
L105230 76290
L105200 76260
L105230 76240
L105230 76290
" />
<path d="M105230 75930
L105260 75950
L105230 75980
L105200 75950
L105230 75930
L105230 75980
" />
<path d="M106270 76290
L105930 76290
" />
<path d="M106100 76290
L106100 75700
L106040 75790
L105990 75840
L105930 75870
" />
<path d="M106520 76240
L106550 76260
L106520 76290
L106490 76260
L106520 76240
L106520 76290
" />
<path d="M106910 75700
L106970 75700
L107030 75730
L107050 75760
L107080 75810
L107110 75930
L107110 76070
L107080 76180
L107050 76240
L107030 76260
L106970 76290
L106910 76290
L106860 76260
L106830 76240
L106800 76180
L106770 76070
L106770 75930
L106800 75810
L106830 75760
L106860 75730
L106910 75700
" />
</g>
<g style="fill:#840000; fill-opacity:0.0; 
stroke:#840000; stroke-width:100; stroke-opacity:1; 
stroke-linecap:round; stroke-linejoin:round;">
</g>
<g style="fill:#840000; fill-opacity:0.0; 
stroke:#840000; stroke-width:60; stroke-opacity:1; 
stroke-linecap:round; stroke-linejoin:round;">
<path d="M70190 76260
L70280 76290
L70420 76290
L70470 76260
L70500 76240
L70530 76180
L70530 76120
L70500 76070
L70470 76040
L70420 76010
L70300 75980
L70250 75950
L70220 75930
L70190 75870
L70190 75810
L70220 75760
L70250 75730
L70300 75700
L70450 75700
L70530 75730
" />
<path d="M70780 76290
L70780 75900
" />
<path d="M70780 75700
L70750 75730
L70780 75760
L70810 75730
L70780 75700
L70780 75760
" />
<path d="M71000 75900
L71310 75900
L71000 76290
L71310 76290
" />
<path d="M71770 76260
L71710 76290
L71600 76290
L71540 76260
L71510 76210
L71510 75980
L71540 75930
L71600 75900
L71710 75900
L71770 75930
L71790 75980
L71790 76040
L71510 76100
" />
<path d="M72050 76240
L72080 76260
L72050 76290
L72020 76260
L72050 76240
L72050 76290
" />
<path d="M72050 75930
L72080 75950
L72050 75980
L72020 75950
L72050 75930
L72050 75980
" />
<path d="M72750 76120
L73030 76120
" />
<path d="M72700 76290
L72890 75700
L73090 76290
" />
<path d="M73540 75900
L73540 76290
" />
<path d="M73400 75670
L73260 76100
L73630 76100
" />
</g>
<g style="fill:#840000; fill-opacity:0.0; 
stroke:#840000; stroke-width:100; stroke-opacity:1; 
stroke-linecap:round; stroke-linejoin:round;">
</g>
<g style="fill:#840000; fill-opacity:0.0; 
stroke:#840000; stroke-width:60; stroke-opacity:1; 
stroke-linecap:round; stroke-linejoin:round;">
<path d="M103680 77390
L103680 76800
" />
<path d="M104210 77390
L104210 76800
" />
<path d="M104210 77360
L104160 77390
L104040 77390
L103990 77360
L103960 77340
L103930 77280
L103930 77110
L103960 77050
L103990 77030
L104040 77000
L104160 77000
L104210 77030
" />
<path d="M104490 77340
L104520 77360
L104490 77390
L104460 77360
L104490 77340
L104490 77390
" />
<path d="M104490 77030
L104520 77050
L104490 77080
L104460 77050
L104490 77030
L104490 77080
" />
<path d="M105530 77390
L105190 77390
" />
<path d="M105360 77390
L105360 76800
L105300 76890
L105250 76940
L105190 76970
" />
<path d="M106200 76770
L105700 77530
" />
<path d="M106710 77390
L106370 77390
" />
<path d="M106540 77390
L106540 76800
L106480 76890
L106430 76940
L106370 76970
" />
</g>
<g style="fill:#840000; fill-opacity:0.0; 
stroke:#840000; stroke-width:100; stroke-opacity:1; 
stroke-linecap:round; stroke-linejoin:round;">
</g>
<g style="fill:#840000; fill-opacity:0.0; 
stroke:#840000; stroke-width:60; stroke-opacity:1; 
stroke-linecap:round; stroke-linejoin:round;">
<path d="M69690 73820
L112210 73820
" />
</g>
<g style="fill:#840000; fill-opacity:0.0; 
stroke:#840000; stroke-width:100; stroke-opacity:1; 
stroke-linecap:round; stroke-linejoin:round;">
</g>
<g style="fill:#840000; fill-opacity:0.0; 
stroke:#840000; stroke-width:160; stroke-opacity:1; 
stroke-linecap:round; stroke-linejoin:round;">
<path d="M70260 74090
L70710 74090
" />
<path d="M70390 74880
L70480 74090
" />
<path d="M70880 74880
L70940 74360
" />
<path d="M70970 74090
L70930 74130
L70960 74170
L71010 74130
L70970 74090
L70960 74170
" />
<path d="M71210 74360
L71510 74360
" />
<path d="M71350 74090
L71270 74770
L71300 74840
L71370 74880
L71450 74880
" />
<path d="M71820 74880
L71750 74840
L71720 74770
L71800 74090
" />
<path d="M72420 74840
L72340 74880
L72190 74880
L72120 74840
L72090 74770
L72130 74470
L72180 74390
L72250 74360
L72400 74360
L72480 74390
L72510 74470
L72500 74540
L72110 74620
" />
<path d="M72800 74810
L72840 74840
L72800 74880
L72760 74840
L72800 74810
L72800 74880
" />
<path d="M72860 74390
L72890 74430
L72850 74470
L72810 74430
L72860 74390
L72850 74470
" />
<path d="M73790 74090
L73890 74880
L74110 74320
L74190 74880
L74470 74090
" />
<path d="M74680 74880
L74740 74360
" />
<path d="M74770 74090
L74730 74130
L74760 74170
L74810 74130
L74770 74090
L74760 74170
" />
<path d="M75430 74880
L75060 74880
L75150 74090
" />
<path d="M75750 74470
L76010 74470
" />
<path d="M76070 74880
L75700 74880
L75790 74090
L76160 74090
" />
<path d="M76410 74880
L76500 74090
L76690 74090
L76800 74130
L76860 74210
L76890 74280
L76910 74430
L76900 74540
L76840 74690
L76790 74770
L76710 74840
L76600 74880
L76410 74880
" />
<path d="M78110 74090
L78040 74660
L78000 74770
L77910 74840
L77800 74880
L77720 74880
" />
<path d="M78400 74880
L78490 74090
" />
<path d="M78850 74880
L78560 74430
" />
<path d="M78940 74090
L78440 74540
" />
<path d="M79200 74090
L79690 74090
L79400 74390
L79510 74390
L79580 74430
L79610 74470
L79640 74540
L79610 74730
L79560 74810
L79530 74840
L79450 74880
L79230 74880
L79150 74840
L79110 74810
" />
<path d="M80180 74090
L80250 74090
L80330 74130
L80360 74170
L80390 74240
L80410 74390
L80380 74580
L80320 74730
L80280 74810
L80240 74840
L80160 74880
L80090 74880
L80010 74840
L79980 74810
L79950 74730
L79930 74580
L79960 74390
L80020 74240
L80060 74170
L80100 74130
L80180 74090
" />
<path d="M80700 74090
L81190 74090
L80900 74390
L81010 74390
L81080 74430
L81110 74470
L81140 74540
L81110 74730
L81060 74810
L81030 74840
L80950 74880
L80730 74880
L80650 74840
L80610 74810
" />
<path d="M81680 74090
L81750 74090
L81830 74130
L81860 74170
L81890 74240
L81910 74390
L81880 74580
L81820 74730
L81780 74810
L81740 74840
L81660 74880
L81590 74880
L81510 74840
L81480 74810
L81450 74730
L81430 74580
L81460 74390
L81520 74240
L81560 74170
L81600 74130
L81680 74090
" />
<path d="M83160 74880
L82790 74880
L82880 74090
" />
<path d="M83480 74470
L83740 74470
" />
<path d="M83800 74880
L83430 74880
L83520 74090
L83890 74090
" />
<path d="M84140 74880
L84230 74090
L84420 74090
L84530 74130
L84590 74210
L84620 74280
L84640 74430
L84630 74540
L84570 74690
L84520 74770
L84440 74840
L84330 74880
L84140 74880
" />
<path d="M85870 74880
L85920 74470
L85890 74390
L85810 74360
L85660 74360
L85590 74390
" />
<path d="M85870 74840
L85790 74880
L85600 74880
L85530 74840
L85500 74770
L85510 74690
L85560 74620
L85630 74580
L85820 74580
L85910 74540
" />
<path d="M86240 74880
L86300 74360
" />
<path d="M86280 74510
L86330 74430
L86370 74390
L86450 74360
L86520 74360
" />
<path d="M86730 74880
L86790 74360
" />
<path d="M86770 74510
L86820 74430
L86860 74390
L86940 74360
L87010 74360
" />
<path d="M87560 74880
L87610 74470
L87580 74390
L87500 74360
L87350 74360
L87280 74390
" />
<path d="M87560 74840
L87480 74880
L87290 74880
L87220 74840
L87190 74770
L87200 74690
L87250 74620
L87320 74580
L87510 74580
L87600 74540
" />
<path d="M87910 74360
L88040 74880
" />
<path d="M88290 74360
L88040 74880
L87940 75070
L87900 75110
L87810 75150
" />
</g>
<g style="fill:#840000; fill-opacity:0.0; 
stroke:#840000; stroke-width:100; stroke-opacity:1; 
stroke-linecap:round; stroke-linejoin:round;">
</g>
<g style="fill:#840000; fill-opacity:0.0; 
stroke:#840000; stroke-width:60; stroke-opacity:1; 
stroke-linecap:round; stroke-linejoin:round;">
<path d="M70420 73060
L70220 73060
" />
<path d="M70220 73370
L70220 72780
L70500 72780
" />
<path d="M70730 73370
L70730 72980
" />
<path d="M70730 72780
L70700 72810
L70730 72840
L70760 72810
L70730 72780
L70730 72840
" />
<path d="M71090 73370
L71040 73340
L71010 73290
L71010 72780
" />
<path d="M71550 73340
L71490 73370
L71380 73370
L71320 73340
L71290 73290
L71290 73060
L71320 73010
L71380 72980
L71490 72980
L71550 73010
L71570 73060
L71570 73120
L71290 73180
" />
<path d="M71830 73320
L71860 73340
L71830 73370
L71800 73340
L71830 73320
L71830 73370
" />
<path d="M71830 73010
L71860 73030
L71830 73060
L71800 73030
L71830 73010
L71830 73060
" />
<path d="M72840 73370
L72560 73370
L72560 72780
" />
<path d="M73040 73060
L73240 73060
" />
<path d="M73320 73370
L73040 73370
L73040 72780
L73320 72780
" />
<path d="M73570 73370
L73570 72780
L73710 72780
L73800 72810
L73850 72870
L73880 72920
L73910 73030
L73910 73120
L73880 73230
L73850 73290
L73800 73340
L73710 73370
L73570 73370
" />
<path d="M74160 73150
L74610 73150
" />
<path d="M75060 72780
L75060 73200
L75030 73290
L74970 73340
L74890 73370
L74830 73370
" />
<path d="M75340 73370
L75340 72780
" />
<path d="M75680 73370
L75420 73030
" />
<path d="M75680 72780
L75340 73120
" />
<path d="M75870 72780
L76240 72780
L76040 73010
L76130 73010
L76180 73030
L76210 73060
L76240 73120
L76240 73260
L76210 73320
L76180 73340
L76130 73370
L75960 73370
L75900 73340
L75870 73320
" />
<path d="M76600 72780
L76660 72780
L76720 72810
L76740 72840
L76770 72890
L76800 73010
L76800 73150
L76770 73260
L76740 73320
L76720 73340
L76660 73370
L76600 73370
L76550 73340
L76520 73320
L76490 73260
L76460 73150
L76460 73010
L76490 72890
L76520 72840
L76550 72810
L76600 72780
" />
<path d="M76990 72780
L77360 72780
L77160 73010
L77250 73010
L77300 73030
L77330 73060
L77360 73120
L77360 73260
L77330 73320
L77300 73340
L77250 73370
L77080 73370
L77020 73340
L76990 73320
" />
<path d="M77720 72780
L77780 72780
L77840 72810
L77860 72840
L77890 72890
L77920 73010
L77920 73150
L77890 73260
L77860 73320
L77840 73340
L77780 73370
L77720 73370
L77670 73340
L77640 73320
L77610 73260
L77580 73150
L77580 73010
L77610 72890
L77640 72840
L77670 72810
L77720 72780
" />
<path d="M78170 73320
L78200 73340
L78170 73370
L78140 73340
L78170 73320
L78170 73370
" />
<path d="M78420 73340
L78480 73370
L78590 73370
L78650 73340
L78680 73290
L78680 73260
L78650 73200
L78590 73180
L78510 73180
L78450 73150
L78420 73090
L78420 73060
L78450 73010
L78510 72980
L78590 72980
L78650 73010
" />
<path d="M79180 73340
L79130 73370
L79010 73370
L78960 73340
L78930 73320
L78900 73260
L78900 73090
L78930 73030
L78960 73010
L79010 72980
L79130 72980
L79180 73010
" />
<path d="M79440 73370
L79440 72780
" />
<path d="M79690 73370
L79690 73060
L79670 73010
L79610 72980
L79520 72980
L79470 73010
L79440 73030
" />
</g>
<g style="fill:#840000; fill-opacity:0.0; 
stroke:#840000; stroke-width:100; stroke-opacity:1; 
stroke-linecap:round; stroke-linejoin:round;">
</g>
<g style="fill:#840000; fill-opacity:0.0; 
stroke:#840000; stroke-width:60; stroke-opacity:1; 
stroke-linecap:round; stroke-linejoin:round;">
<path d="M69690 71460
L112210 71460
" />
</g>
<g style="fill:#840000; fill-opacity:0.0; 
stroke:#840000; stroke-width:100; stroke-opacity:1; 
stroke-linecap:round; stroke-linejoin:round;">
</g>
<g style="fill:#840000; fill-opacity:0.0; 
stroke:#840000; stroke-width:60; stroke-opacity:1; 
stroke-linecap:round; stroke-linejoin:round;">
<path d="M70190 72280
L70280 72310
L70420 72310
L70470 72280
L70500 72260
L70530 72200
L70530 72140
L70500 72090
L70470 72060
L70420 72030
L70300 72000
L70250 71970
L70220 71950
L70190 71890
L70190 71830
L70220 71780
L70250 71750
L70300 71720
L70450 71720
L70530 71750
" />
<path d="M70780 72310
L70780 71720
" />
<path d="M71030 72310
L71030 72000
L71010 71950
L70950 71920
L70860 71920
L70810 71950
L70780 71970
" />
<path d="M71540 72280
L71480 72310
L71370 72310
L71310 72280
L71280 72230
L71280 72000
L71310 71950
L71370 71920
L71480 71920
L71540 71950
L71560 72000
L71560 72060
L71280 72120
" />
<path d="M72050 72280
L71990 72310
L71880 72310
L71820 72280
L71790 72230
L71790 72000
L71820 71950
L71880 71920
L71990 71920
L72050 71950
L72070 72000
L72070 72060
L71790 72120
" />
<path d="M72250 71920
L72470 71920
" />
<path d="M72330 71720
L72330 72230
L72360 72280
L72410 72310
L72470 72310
" />
<path d="M72670 72260
L72700 72280
L72670 72310
L72640 72280
L72670 72260
L72670 72310
" />
<path d="M72670 71950
L72700 71970
L72670 72000
L72640 71970
L72670 71950
L72670 72000
" />
<path d="M73820 71690
L73320 72450
" />
</g>
<g style="fill:#840000; fill-opacity:0.0; 
stroke:#840000; stroke-width:100; stroke-opacity:1; 
stroke-linecap:round; stroke-linejoin:round;">
</g>
<g style="fill:#840000; fill-opacity:0.0; 
stroke:#840000; stroke-width:120; stroke-opacity:1; 
stroke-linecap:round; stroke-linejoin:round;">
<path d="M70190 71100
L70280 71130
L70420 71130
L70470 71100
L70500 71080
L70530 71020
L70530 70960
L70500 70910
L70470 70880
L70420 70850
L70300 70820
L70250 70790
L70220 70770
L70190 70710
L70190 70650
L70220 70600
L70250 70570
L70300 70540
L70450 70540
L70530 70570
" />
<path d="M71010 71100
L70950 71130
L70840 71130
L70780 71100
L70750 71050
L70750 70820
L70780 70770
L70840 70740
L70950 70740
L71010 70770
L71030 70820
L71030 70880
L70750 70940
" />
<path d="M71540 71130
L71540 70820
L71520 70770
L71460 70740
L71350 70740
L71290 70770
" />
<path d="M71540 71100
L71490 71130
L71350 71130
L71290 71100
L71260 71050
L71260 70990
L71290 70940
L71350 70910
L71490 70910
L71540 70880
" />
<path d="M71820 70740
L71820 71130
" />
<path d="M71820 70790
L71850 70770
L71900 70740
L71990 70740
L72050 70770
L72070 70820
L72070 71130
" />
<path d="M73080 71130
L72800 71130
L72800 70540
" />
<path d="M73530 71130
L73530 70820
L73510 70770
L73450 70740
L73340 70740
L73280 70770
" />
<path d="M73530 71100
L73480 71130
L73340 71130
L73280 71100
L73250 71050
L73250 70990
L73280 70940
L73340 70910
L73480 70910
L73530 70880
" />
<path d="M73810 70740
L73810 71130
" />
<path d="M73810 70790
L73840 70770
L73890 70740
L73980 70740
L74040 70770
L74060 70820
L74060 71130
" />
<path d="M74340 71130
L74340 70740
" />
<path d="M74340 70540
L74310 70570
L74340 70600
L74370 70570
L74340 70540
L74340 70600
" />
<path d="M74870 70740
L74870 71220
L74850 71270
L74820 71300
L74760 71330
L74680 71330
L74620 71300
" />
<path d="M74870 71100
L74820 71130
L74700 71130
L74650 71100
L74620 71080
L74590 71020
L74590 70850
L74620 70790
L74650 70770
L74700 70740
L74820 70740
L74870 70770
" />
<path d="M75400 71130
L75400 70820
L75380 70770
L75320 70740
L75210 70740
L75150 70770
" />
<path d="M75400 71100
L75350 71130
L75210 71130
L75150 71100
L75120 71050
L75120 70990
L75150 70940
L75210 70910
L75350 70910
L75400 70880
" />
<path d="M75680 70740
L75680 71130
" />
<path d="M75680 70790
L75710 70770
L75760 70740
L75850 70740
L75910 70770
L75930 70820
L75930 71130
" />
</g>
<g style="fill:#840000; fill-opacity:0.0; 
stroke:#840000; stroke-width:100; stroke-opacity:1; 
stroke-linecap:round; stroke-linejoin:round;">
</g>
<g style="fill:#840000; fill-opacity:0.0; 
stroke:#840000; stroke-width:60; stroke-opacity:1; 
stroke-linecap:round; stroke-linejoin:round;">
<path d="M70190 68740
L70280 68770
L70420 68770
L70470 68740
L70500 68720
L70530 68660
L70530 68600
L70500 68550
L70470 68520
L70420 68490
L70300 68460
L70250 68430
L70220 68410
L70190 68350
L70190 68290
L70220 68240
L70250 68210
L70300 68180
L70450 68180
L70530 68210
" />
<path d="M71030 68380
L71030 68770
" />
<path d="M70780 68380
L70780 68690
L70810 68740
L70860 68770
L70950 68770
L71010 68740
L71030 68720
" />
<path d="M71310 68770
L71310 68380
" />
<path d="M71310 68490
L71340 68430
L71370 68410
L71420 68380
L71480 68380
" />
<path d="M71600 68380
L71820 68380
" />
<path d="M71680 68770
L71680 68270
L71710 68210
L71760 68180
L71820 68180
" />
<path d="M72270 68770
L72270 68460
L72250 68410
L72190 68380
L72080 68380
L72020 68410
" />
<path d="M72270 68740
L72220 68770
L72080 68770
L72020 68740
L71990 68690
L71990 68630
L72020 68580
L72080 68550
L72220 68550
L72270 68520
" />
<path d="M72800 68740
L72750 68770
L72630 68770
L72580 68740
L72550 68720
L72520 68660
L72520 68490
L72550 68430
L72580 68410
L72630 68380
L72750 68380
L72800 68410
" />
<path d="M73290 68740
L73230 68770
L73120 68770
L73060 68740
L73030 68690
L73030 68460
L73060 68410
L73120 68380
L73230 68380
L73290 68410
L73310 68460
L73310 68520
L73030 68580
" />
<path d="M73570 68550
L74020 68550
" />
<path d="M74300 68770
L74300 68380
" />
<path d="M74300 68430
L74330 68410
L74380 68380
L74470 68380
L74530 68410
L74550 68460
L74550 68770
" />
<path d="M74550 68460
L74580 68410
L74640 68380
L74720 68380
L74780 68410
L74810 68460
L74810 68770
" />
<path d="M75170 68770
L75120 68740
L75090 68720
L75060 68660
L75060 68490
L75090 68430
L75120 68410
L75170 68380
L75260 68380
L75320 68410
L75340 68430
L75370 68490
L75370 68660
L75340 68720
L75320 68740
L75260 68770
L75170 68770
" />
<path d="M75870 68380
L75870 68770
" />
<path d="M75620 68380
L75620 68690
L75650 68740
L75700 68770
L75790 68770
L75850 68740
L75870 68720
" />
<path d="M76150 68380
L76150 68770
" />
<path d="M76150 68430
L76180 68410
L76230 68380
L76320 68380
L76380 68410
L76400 68460
L76400 68770
" />
<path d="M76600 68380
L76820 68380
" />
<path d="M76680 68180
L76680 68690
L76710 68740
L76760 68770
L76820 68770
" />
<path d="M77750 68770
L77470 68770
L77470 68180
" />
<path d="M77950 68460
L78150 68460
" />
<path d="M78230 68770
L77950 68770
L77950 68180
L78230 68180
" />
<path d="M78480 68770
L78480 68180
L78620 68180
L78710 68210
L78760 68270
L78790 68320
L78820 68430
L78820 68520
L78790 68630
L78760 68690
L78710 68740
L78620 68770
L78480 68770
" />
<path d="M79520 68770
L79520 68180
" />
<path d="M79520 68410
L79580 68380
L79690 68380
L79750 68410
L79770 68430
L79800 68490
L79800 68660
L79770 68720
L79750 68740
L79690 68770
L79580 68770
L79520 68740
" />
<path d="M80130 68770
L80080 68740
L80050 68720
L80020 68660
L80020 68490
L80050 68430
L80080 68410
L80130 68380
L80220 68380
L80280 68410
L80300 68430
L80330 68490
L80330 68660
L80300 68720
L80280 68740
L80220 68770
L80130 68770
" />
<path d="M80830 68770
L80830 68460
L80810 68410
L80750 68380
L80640 68380
L80580 68410
" />
<path d="M80830 68740
L80780 68770
L80640 68770
L80580 68740
L80550 68690
L80550 68630
L80580 68580
L80640 68550
L80780 68550
L80830 68520
" />
<path d="M81110 68770
L81110 68380
" />
<path d="M81110 68490
L81140 68430
L81170 68410
L81220 68380
L81280 68380
" />
<path d="M81730 68770
L81730 68180
" />
<path d="M81730 68740
L81680 68770
L81560 68770
L81510 68740
L81480 68720
L81450 68660
L81450 68490
L81480 68430
L81510 68410
L81560 68380
L81680 68380
L81730 68410
" />
</g>
<g style="fill:#840000; fill-opacity:0.0; 
stroke:#840000; stroke-width:100; stroke-opacity:1; 
stroke-linecap:round; stroke-linejoin:round;">
</g>
<g style="fill:#840000; fill-opacity:0.0; 
stroke:#840000; stroke-width:60; stroke-opacity:1; 
stroke-linecap:round; stroke-linejoin:round;">
<path d="M70560 66400
L70360 66120
" />
<path d="M70220 66400
L70220 65810
L70450 65810
L70500 65840
L70530 65870
L70560 65920
L70560 66010
L70530 66060
L70500 66090
L70450 66120
L70220 66120
" />
<path d="M71040 66370
L70980 66400
L70870 66400
L70810 66370
L70780 66320
L70780 66090
L70810 66040
L70870 66010
L70980 66010
L71040 66040
L71060 66090
L71060 66150
L70780 66210
" />
<path d="M71400 66400
L71350 66370
L71320 66320
L71320 65810
" />
<path d="M71860 66370
L71800 66400
L71690 66400
L71630 66370
L71600 66320
L71600 66090
L71630 66040
L71690 66010
L71800 66010
L71860 66040
L71880 66090
L71880 66150
L71600 66210
" />
<path d="M72390 66400
L72390 66090
L72370 66040
L72310 66010
L72200 66010
L72140 66040
" />
<path d="M72390 66370
L72340 66400
L72200 66400
L72140 66370
L72110 66320
L72110 66260
L72140 66210
L72200 66180
L72340 66180
L72390 66150
" />
<path d="M72640 66370
L72700 66400
L72810 66400
L72870 66370
L72900 66320
L72900 66290
L72870 66230
L72810 66210
L72730 66210
L72670 66180
L72640 66120
L72640 66090
L72670 66040
L72730 66010
L72810 66010
L72870 66040
" />
<path d="M73380 66370
L73320 66400
L73210 66400
L73150 66370
L73120 66320
L73120 66090
L73150 66040
L73210 66010
L73320 66010
L73380 66040
L73400 66090
L73400 66150
L73120 66210
" />
<path d="M73910 66400
L73910 65810
" />
<path d="M73910 66370
L73860 66400
L73740 66400
L73690 66370
L73660 66350
L73630 66290
L73630 66120
L73660 66060
L73690 66040
L73740 66010
L73860 66010
L73910 66040
" />
<path d="M74890 66010
L74890 66400
" />
<path d="M74640 66010
L74640 66320
L74670 66370
L74720 66400
L74810 66400
L74870 66370
L74890 66350
" />
<path d="M75170 66010
L75170 66400
" />
<path d="M75170 66060
L75200 66040
L75250 66010
L75340 66010
L75400 66040
L75420 66090
L75420 66400
" />
<path d="M75950 66400
L75950 65810
" />
<path d="M75950 66370
L75900 66400
L75780 66400
L75730 66370
L75700 66350
L75670 66290
L75670 66120
L75700 66060
L75730 66040
L75780 66010
L75900 66010
L75950 66040
" />
<path d="M76460 66370
L76400 66400
L76290 66400
L76230 66370
L76200 66320
L76200 66090
L76230 66040
L76290 66010
L76400 66010
L76460 66040
L76480 66090
L76480 66150
L76200 66210
" />
<path d="M76740 66400
L76740 66010
" />
<path d="M76740 66120
L76770 66060
L76800 66040
L76850 66010
L76910 66010
" />
<path d="M77480 66010
L77700 66010
" />
<path d="M77560 65810
L77560 66320
L77590 66370
L77640 66400
L77700 66400
" />
<path d="M77900 66400
L77900 65810
" />
<path d="M78150 66400
L78150 66090
L78130 66040
L78070 66010
L77980 66010
L77930 66040
L77900 66060
" />
<path d="M78660 66370
L78600 66400
L78490 66400
L78430 66370
L78400 66320
L78400 66090
L78430 66040
L78490 66010
L78600 66010
L78660 66040
L78680 66090
L78680 66150
L78400 66210
" />
<path d="M79730 66350
L79700 66370
L79620 66400
L79560 66400
L79470 66370
L79420 66320
L79390 66260
L79360 66150
L79360 66060
L79390 65950
L79420 65900
L79470 65840
L79560 65810
L79620 65810
L79700 65840
L79730 65870
" />
<path d="M79980 66090
L80180 66090
" />
<path d="M80260 66400
L79980 66400
L79980 65810
L80260 65810
" />
<path d="M80850 66400
L80650 66120
" />
<path d="M80510 66400
L80510 65810
L80740 65810
L80790 65840
L80820 65870
L80850 65920
L80850 66010
L80820 66060
L80790 66090
L80740 66120
L80510 66120
" />
<path d="M81100 66400
L81100 65810
L81440 66400
L81440 65810
" />
<path d="M82280 65810
L82400 65810
L82450 65840
L82510 65900
L82540 66010
L82540 66210
L82510 66320
L82450 66370
L82400 66400
L82280 66400
L82230 66370
L82170 66320
L82140 66210
L82140 66010
L82170 65900
L82230 65840
L82280 65810
" />
<path d="M82790 66010
L82790 66600
" />
<path d="M82790 66040
L82850 66010
L82960 66010
L83020 66040
L83040 66060
L83070 66120
L83070 66290
L83040 66350
L83020 66370
L82960 66400
L82850 66400
L82790 66370
" />
<path d="M83550 66370
L83490 66400
L83380 66400
L83320 66370
L83290 66320
L83290 66090
L83320 66040
L83380 66010
L83490 66010
L83550 66040
L83570 66090
L83570 66150
L83290 66210
" />
<path d="M83830 66010
L83830 66400
" />
<path d="M83830 66060
L83860 66040
L83910 66010
L84000 66010
L84060 66040
L84080 66090
L84080 66400
" />
<path d="M84810 66400
L84810 65810
" />
<path d="M84810 66090
L85150 66090
" />
<path d="M85150 66400
L85150 65810
" />
<path d="M85680 66400
L85680 66090
L85660 66040
L85600 66010
L85490 66010
L85430 66040
" />
<path d="M85680 66370
L85630 66400
L85490 66400
L85430 66370
L85400 66320
L85400 66260
L85430 66210
L85490 66180
L85630 66180
L85680 66150
" />
<path d="M85960 66400
L85960 66010
" />
<path d="M85960 66120
L85990 66060
L86020 66040
L86070 66010
L86130 66010
" />
<path d="M86580 66400
L86580 65810
" />
<path d="M86580 66370
L86530 66400
L86410 66400
L86360 66370
L86330 66350
L86300 66290
L86300 66120
L86330 66060
L86360 66040
L86410 66010
L86530 66010
L86580 66040
" />
<path d="M86800 66010
L86920 66400
L87030 66120
L87140 66400
L87250 66010
" />
<path d="M87730 66400
L87730 66090
L87710 66040
L87650 66010
L87540 66010
L87480 66040
" />
<path d="M87730 66370
L87680 66400
L87540 66400
L87480 66370
L87450 66320
L87450 66260
L87480 66210
L87540 66180
L87680 66180
L87730 66150
" />
<path d="M88010 66400
L88010 66010
" />
<path d="M88010 66120
L88040 66060
L88070 66040
L88120 66010
L88180 66010
" />
<path d="M88610 66370
L88550 66400
L88440 66400
L88380 66370
L88350 66320
L88350 66090
L88380 66040
L88440 66010
L88550 66010
L88610 66040
L88630 66090
L88630 66150
L88350 66210
" />
<path d="M89620 66400
L89340 66400
L89340 65810
" />
<path d="M89820 66400
L89820 66010
" />
<path d="M89820 65810
L89790 65840
L89820 65870
L89850 65840
L89820 65810
L89820 65870
" />
<path d="M90350 66370
L90300 66400
L90180 66400
L90130 66370
L90100 66350
L90070 66290
L90070 66120
L90100 66060
L90130 66040
L90180 66010
L90300 66010
L90350 66040
" />
<path d="M90840 66370
L90780 66400
L90670 66400
L90610 66370
L90580 66320
L90580 66090
L90610 66040
L90670 66010
L90780 66010
L90840 66040
L90860 66090
L90860 66150
L90580 66210
" />
<path d="M91120 66010
L91120 66400
" />
<path d="M91120 66060
L91150 66040
L91200 66010
L91290 66010
L91350 66040
L91370 66090
L91370 66400
" />
<path d="M91900 66370
L91850 66400
L91730 66400
L91680 66370
L91650 66350
L91620 66290
L91620 66120
L91650 66060
L91680 66040
L91730 66010
L91850 66010
L91900 66040
" />
<path d="M92390 66370
L92330 66400
L92220 66400
L92160 66370
L92130 66320
L92130 66090
L92160 66040
L92220 66010
L92330 66010
L92390 66040
L92410 66090
L92410 66150
L92130 66210
" />
<path d="M93060 66010
L93200 66400
L93350 66010
" />
<path d="M93880 66400
L93540 66400
" />
<path d="M93710 66400
L93710 65810
L93650 65900
L93600 65950
L93540 65980
" />
<path d="M94130 66350
L94160 66370
L94130 66400
L94100 66370
L94130 66350
L94130 66400
" />
<path d="M94380 65870
L94410 65840
L94470 65810
L94610 65810
L94660 65840
L94690 65870
L94720 65920
L94720 65980
L94690 66060
L94350 66400
L94720 66400
" />
</g>
<g style="fill:#840000; fill-opacity:0.0; 
stroke:#840000; stroke-width:100; stroke-opacity:1; 
stroke-linecap:round; stroke-linejoin:round;">
</g>
<g style="fill:#840000; fill-opacity:0.0; 
stroke:#840000; stroke-width:60; stroke-opacity:1; 
stroke-linecap:round; stroke-linejoin:round;">
<path d="M77560 75400
L77560 76580
" />
</g>
<g style="fill:#840000; fill-opacity:0.0; 
stroke:#840000; stroke-width:100; stroke-opacity:1; 
stroke-linecap:round; stroke-linejoin:round;">
</g>
<g style="fill:#840000; fill-opacity:0.0; 
stroke:#840000; stroke-width:60; stroke-opacity:1; 
stroke-linecap:round; stroke-linejoin:round;">
<path d="M102760 75400
L102760 77960
" />
</g>
<g style="fill:#840000; fill-opacity:0.0; 
stroke:#840000; stroke-width:0; stroke-opacity:1; 
stroke-linecap:round; stroke-linejoin:round;">
</g>
<g style="fill:#840000; fill-opacity:0.0; 
stroke:#840000; stroke-width:80; stroke-opacity:1; 
stroke-linecap:round; stroke-linejoin:round;">
<polyline fill="none;"
points="57500,35000
57500,36000
" /> 
<polyline fill="none;"
points="57500,35500
56500,35500
" /> 
</g>
<g style="fill:#840000; fill-opacity:1.0; 
stroke:#840000; stroke-width:80; stroke-opacity:1; 
stroke-linecap:round; stroke-linejoin:round;">
<polyline style="fill-rule:evenodd;"
points="56500,35000
56500,36000
57500,35500
56500,35000
" /> 
</g>
<g style="fill:#840000; fill-opacity:0.0; 
stroke:#840000; stroke-width:80; stroke-opacity:1; 
stroke-linecap:round; stroke-linejoin:round;">
<polyline fill="none;"
points="58200,35200
58800,34600
58500,34600
58800,34600
58800,34900
" /> 
<polyline fill="none;"
points="57700,35200
58300,34600
58000,34600
58300,34600
58300,34900
" /> 
<path d="M57500 35500
L58500 35500
" />
<path d="M58140 35380
L57860 35380
" />
<path d="M58000 35380
L58000 34880
L57950 34950
L57900 35000
L57860 35020
" />
<path d="M56500 35500
L55500 35500
" />
<path d="M55860 34920
L55880 34900
L55930 34880
L56050 34880
L56090 34900
L56120 34920
L56140 34970
L56140 35020
L56120 35090
L55830 35380
L56140 35380
" />
</g>
<g style="fill:#008484; fill-opacity:0.0; 
stroke:#008484; stroke-width:80; stroke-opacity:1; 
stroke-linecap:round; stroke-linejoin:round;">
<path d="M56630 36680
L56630 36180
L56750 36180
L56820 36200
L56870 36250
L56890 36300
L56910 36390
L56910 36460
L56890 36560
L56870 36600
L56820 36650
L56750 36680
L56630 36680
" />
<path d="M57390 36680
L57110 36680
" />
<path d="M57250 36680
L57250 36180
L57200 36250
L57150 36300
L57110 36320
" />
<path d="M55860 33680
L55860 34030
L55840 34100
L55790 34150
L55720 34180
L55670 34180
" />
<path d="M56100 34180
L56100 33680
" />
<path d="M56380 34180
L56170 33890
" />
<path d="M56380 33680
L56100 33960
" />
<path d="M56550 33680
L56860 33680
L56690 33870
L56770 33870
L56810 33890
L56840 33910
L56860 33960
L56860 34080
L56840 34130
L56810 34150
L56770 34180
L56620 34180
L56580 34150
L56550 34130
" />
<path d="M57170 33680
L57220 33680
L57270 33700
L57290 33720
L57320 33770
L57340 33870
L57340 33990
L57320 34080
L57290 34130
L57270 34150
L57220 34180
L57170 34180
L57130 34150
L57100 34130
L57080 34080
L57060 33990
L57060 33870
L57080 33770
L57100 33720
L57130 33700
L57170 33680
" />
<path d="M57510 33680
L57820 33680
L57650 33870
L57730 33870
L57770 33890
L57800 33910
L57820 33960
L57820 34080
L57800 34130
L57770 34150
L57730 34180
L57580 34180
L57540 34150
L57510 34130
" />
<path d="M58130 33680
L58180 33680
L58230 33700
L58250 33720
L58280 33770
L58300 33870
L58300 33990
L58280 34080
L58250 34130
L58230 34150
L58180 34180
L58130 34180
L58090 34150
L58060 34130
L58040 34080
L58020 33990
L58020 33870
L58040 33770
L58060 33720
L58090 33700
L58130 33680
" />
</g>
<g style="fill:#008484; fill-opacity:0.0; 
stroke:#008484; stroke-width:0; stroke-opacity:1; 
stroke-linecap:round; stroke-linejoin:round;">
</g>
<g style="fill:#840000; fill-opacity:0.0; 
stroke:#840000; stroke-width:0; stroke-opacity:1; 
stroke-linecap:round; stroke-linejoin:round;">
</g>
<g style="fill:#840000; fill-opacity:0.0; 
stroke:#840000; stroke-width:80; stroke-opacity:1; 
stroke-linecap:round; stroke-linejoin:round;">
<polyline fill="none;"
points="62500,35000
62500,36000
" /> 
<polyline fill="none;"
points="62500,35500
61500,35500
" /> 
</g>
<g style="fill:#840000; fill-opacity:1.0; 
stroke:#840000; stroke-width:80; stroke-opacity:1; 
stroke-linecap:round; stroke-linejoin:round;">
<polyline style="fill-rule:evenodd;"
points="61500,35000
61500,36000
62500,35500
61500,35000
" /> 
</g>
<g style="fill:#840000; fill-opacity:0.0; 
stroke:#840000; stroke-width:80; stroke-opacity:1; 
stroke-linecap:round; stroke-linejoin:round;">
<polyline fill="none;"
points="63200,35200
63800,34600
63500,34600
63800,34600
63800,34900
" /> 
<polyline fill="none;"
points="62700,35200
63300,34600
63000,34600
63300,34600
63300,34900
" /> 
<path d="M62500 35500
L63500 35500
" />
<path d="M63140 35380
L62860 35380
" />
<path d="M63000 35380
L63000 34880
L62950 34950
L62900 35000
L62860 35020
" />
<path d="M61500 35500
L60500 35500
" />
<path d="M60860 34920
L60880 34900
L60930 34880
L61050 34880
L61090 34900
L61120 34920
L61140 34970
L61140 35020
L61120 35090
L60830 35380
L61140 35380
" />
</g>
<g style="fill:#008484; fill-opacity:0.0; 
stroke:#008484; stroke-width:80; stroke-opacity:1; 
stroke-linecap:round; stroke-linejoin:round;">
<path d="M61630 36680
L61630 36180
L61750 36180
L61820 36200
L61870 36250
L61890 36300
L61910 36390
L61910 36460
L61890 36560
L61870 36600
L61820 36650
L61750 36680
L61630 36680
" />
<path d="M62110 36220
L62130 36200
L62180 36180
L62300 36180
L62340 36200
L62370 36220
L62390 36270
L62390 36320
L62370 36390
L62080 36680
L62390 36680
" />
<path d="M60860 33680
L60860 34030
L60840 34100
L60790 34150
L60720 34180
L60670 34180
" />
<path d="M61100 34180
L61100 33680
" />
<path d="M61380 34180
L61170 33890
" />
<path d="M61380 33680
L61100 33960
" />
<path d="M61550 33680
L61860 33680
L61690 33870
L61770 33870
L61810 33890
L61840 33910
L61860 33960
L61860 34080
L61840 34130
L61810 34150
L61770 34180
L61620 34180
L61580 34150
L61550 34130
" />
<path d="M62170 33680
L62220 33680
L62270 33700
L62290 33720
L62320 33770
L62340 33870
L62340 33990
L62320 34080
L62290 34130
L62270 34150
L62220 34180
L62170 34180
L62130 34150
L62100 34130
L62080 34080
L62060 33990
L62060 33870
L62080 33770
L62100 33720
L62130 33700
L62170 33680
" />
<path d="M62510 33680
L62820 33680
L62650 33870
L62730 33870
L62770 33890
L62800 33910
L62820 33960
L62820 34080
L62800 34130
L62770 34150
L62730 34180
L62580 34180
L62540 34150
L62510 34130
" />
<path d="M63130 33680
L63180 33680
L63230 33700
L63250 33720
L63280 33770
L63300 33870
L63300 33990
L63280 34080
L63250 34130
L63230 34150
L63180 34180
L63130 34180
L63090 34150
L63060 34130
L63040 34080
L63020 33990
L63020 33870
L63040 33770
L63060 33720
L63090 33700
L63130 33680
" />
</g>
<g style="fill:#008484; fill-opacity:0.0; 
stroke:#008484; stroke-width:0; stroke-opacity:1; 
stroke-linecap:round; stroke-linejoin:round;">
</g>
<g style="fill:#840000; fill-opacity:0.0; 
stroke:#840000; stroke-width:0; stroke-opacity:1; 
stroke-linecap:round; stroke-linejoin:round;">
</g>
<g style="fill:#840000; fill-opacity:0.0; 
stroke:#840000; stroke-width:80; stroke-opacity:1; 
stroke-linecap:round; stroke-linejoin:round;">
<polyline fill="none;"
points="67500,35000
67500,36000
" /> 
<polyline fill="none;"
points="67500,35500
66500,35500
" /> 
</g>
<g style="fill:#840000; fill-opacity:1.0; 
stroke:#840000; stroke-width:80; stroke-opacity:1; 
stroke-linecap:round; stroke-linejoin:round;">
<polyline style="fill-rule:evenodd;"
points="66500,35000
66500,36000
67500,35500
66500,35000
" /> 
</g>
<g style="fill:#840000; fill-opacity:0.0; 
stroke:#840000; stroke-width:80; stroke-opacity:1; 
stroke-linecap:round; stroke-linejoin:round;">
<polyline fill="none;"
points="68200,35200
68800,34600
68500,34600
68800,34600
68800,34900
" /> 
<polyline fill="none;"
points="67700,35200
68300,34600
68000,34600
68300,34600
68300,34900
" /> 
<path d="M67500 35500
L68500 35500
" />
<path d="M68140 35380
L67860 35380
" />
<path d="M68000 35380
L68000 34880
L67950 34950
L67900 35000
L67860 35020
" />
<path d="M66500 35500
L65500 35500
" />
<path d="M65860 34920
L65880 34900
L65930 34880
L66050 34880
L66090 34900
L66120 34920
L66140 34970
L66140 35020
L66120 35090
L65830 35380
L66140 35380
" />
</g>
<g style="fill:#008484; fill-opacity:0.0; 
stroke:#008484; stroke-width:80; stroke-opacity:1; 
stroke-linecap:round; stroke-linejoin:round;">
<path d="M66630 36680
L66630 36180
L66750 36180
L66820 36200
L66870 36250
L66890 36300
L66910 36390
L66910 36460
L66890 36560
L66870 36600
L66820 36650
L66750 36680
L66630 36680
" />
<path d="M67080 36180
L67390 36180
L67220 36370
L67300 36370
L67340 36390
L67370 36410
L67390 36460
L67390 36580
L67370 36630
L67340 36650
L67300 36680
L67150 36680
L67110 36650
L67080 36630
" />
<path d="M65860 33680
L65860 34030
L65840 34100
L65790 34150
L65720 34180
L65670 34180
" />
<path d="M66100 34180
L66100 33680
" />
<path d="M66380 34180
L66170 33890
" />
<path d="M66380 33680
L66100 33960
" />
<path d="M66550 33680
L66860 33680
L66690 33870
L66770 33870
L66810 33890
L66840 33910
L66860 33960
L66860 34080
L66840 34130
L66810 34150
L66770 34180
L66620 34180
L66580 34150
L66550 34130
" />
<path d="M67170 33680
L67220 33680
L67270 33700
L67290 33720
L67320 33770
L67340 33870
L67340 33990
L67320 34080
L67290 34130
L67270 34150
L67220 34180
L67170 34180
L67130 34150
L67100 34130
L67080 34080
L67060 33990
L67060 33870
L67080 33770
L67100 33720
L67130 33700
L67170 33680
" />
<path d="M67510 33680
L67820 33680
L67650 33870
L67730 33870
L67770 33890
L67800 33910
L67820 33960
L67820 34080
L67800 34130
L67770 34150
L67730 34180
L67580 34180
L67540 34150
L67510 34130
" />
<path d="M68130 33680
L68180 33680
L68230 33700
L68250 33720
L68280 33770
L68300 33870
L68300 33990
L68280 34080
L68250 34130
L68230 34150
L68180 34180
L68130 34180
L68090 34150
L68060 34130
L68040 34080
L68020 33990
L68020 33870
L68040 33770
L68060 33720
L68090 33700
L68130 33680
" />
</g>
<g style="fill:#008400; fill-opacity:0.0; 
stroke:#008400; stroke-width:80; stroke-opacity:1; 
stroke-linecap:round; stroke-linejoin:round;">
<path d="M58500 35500
L60500 35500
" />
<path d="M63500 35500
L65500 35500
" />
</g>
<g style="fill:#008400; fill-opacity:0.0; 
stroke:#008400; stroke-width:0; stroke-opacity:1; 
stroke-linecap:round; stroke-linejoin:round;">
</g>
<g style="fill:#840000; fill-opacity:0.0; 
stroke:#840000; stroke-width:0; stroke-opacity:1; 
stroke-linecap:round; stroke-linejoin:round;">
</g>
<g style="fill:#840000; fill-opacity:0.0; 
stroke:#840000; stroke-width:80; stroke-opacity:1; 
stroke-linecap:round; stroke-linejoin:round;">
<polyline fill="none;"
points="66500,41000
66500,40000
" /> 
<polyline fill="none;"
points="66500,40500
67500,40500
" /> 
</g>
<g style="fill:#840000; fill-opacity:1.0; 
stroke:#840000; stroke-width:80; stroke-opacity:1; 
stroke-linecap:round; stroke-linejoin:round;">
<polyline style="fill-rule:evenodd;"
points="67500,41000
67500,40000
66500,40500
67500,41000
" /> 
</g>
<g style="fill:#840000; fill-opacity:0.0; 
stroke:#840000; stroke-width:80; stroke-opacity:1; 
stroke-linecap:round; stroke-linejoin:round;">
<polyline fill="none;"
points="65800,40800
65200,41400
65500,41400
65200,41400
65200,41100
" /> 
<polyline fill="none;"
points="66300,40800
65700,41400
66000,41400
65700,41400
65700,41100
" /> 
<path d="M66500 40500
L65500 40500
" />
<path d="M66140 40380
L65860 40380
" />
<path d="M66000 40380
L66000 39880
L65950 39950
L65900 40000
L65860 40020
" />
<path d="M67500 40500
L68500 40500
" />
<path d="M67860 39920
L67880 39900
L67930 39880
L68050 39880
L68090 39900
L68120 39920
L68140 39970
L68140 40020
L68120 40090
L67830 40380
L68140 40380
" />
</g>
<g style="fill:#008484; fill-opacity:0.0; 
stroke:#008484; stroke-width:80; stroke-opacity:1; 
stroke-linecap:round; stroke-linejoin:round;">
<path d="M66630 39770
L66630 39270
L66750 39270
L66820 39290
L66870 39340
L66890 39390
L66910 39480
L66910 39550
L66890 39650
L66870 39690
L66820 39740
L66750 39770
L66630 39770
" />
<path d="M67340 39270
L67250 39270
L67200 39290
L67180 39310
L67130 39390
L67110 39480
L67110 39670
L67130 39720
L67150 39740
L67200 39770
L67300 39770
L67340 39740
L67370 39720
L67390 39670
L67390 39550
L67370 39500
L67340 39480
L67300 39460
L67200 39460
L67150 39480
L67130 39500
L67110 39550
" />
<path d="M65860 41770
L65860 42120
L65840 42190
L65790 42240
L65720 42270
L65670 42270
" />
<path d="M66100 42270
L66100 41770
" />
<path d="M66380 42270
L66170 41980
" />
<path d="M66380 41770
L66100 42050
" />
<path d="M66550 41770
L66860 41770
L66690 41960
L66770 41960
L66810 41980
L66840 42000
L66860 42050
L66860 42170
L66840 42220
L66810 42240
L66770 42270
L66620 42270
L66580 42240
L66550 42220
" />
<path d="M67170 41770
L67220 41770
L67270 41790
L67290 41810
L67320 41860
L67340 41960
L67340 42080
L67320 42170
L67290 42220
L67270 42240
L67220 42270
L67170 42270
L67130 42240
L67100 42220
L67080 42170
L67060 42080
L67060 41960
L67080 41860
L67100 41810
L67130 41790
L67170 41770
" />
<path d="M67510 41770
L67820 41770
L67650 41960
L67730 41960
L67770 41980
L67800 42000
L67820 42050
L67820 42170
L67800 42220
L67770 42240
L67730 42270
L67580 42270
L67540 42240
L67510 42220
" />
<path d="M68130 41770
L68180 41770
L68230 41790
L68250 41810
L68280 41860
L68300 41960
L68300 42080
L68280 42170
L68250 42220
L68230 42240
L68180 42270
L68130 42270
L68090 42240
L68060 42220
L68040 42170
L68020 42080
L68020 41960
L68040 41860
L68060 41810
L68090 41790
L68130 41770
" />
</g>
<g style="fill:#008484; fill-opacity:0.0; 
stroke:#008484; stroke-width:0; stroke-opacity:1; 
stroke-linecap:round; stroke-linejoin:round;">
</g>
<g style="fill:#840000; fill-opacity:0.0; 
stroke:#840000; stroke-width:0; stroke-opacity:1; 
stroke-linecap:round; stroke-linejoin:round;">
</g>
<g style="fill:#840000; fill-opacity:0.0; 
stroke:#840000; stroke-width:80; stroke-opacity:1; 
stroke-linecap:round; stroke-linejoin:round;">
<polyline fill="none;"
points="61500,41000
61500,40000
" /> 
<polyline fill="none;"
points="61500,40500
62500,40500
" /> 
</g>
<g style="fill:#840000; fill-opacity:1.0; 
stroke:#840000; stroke-width:80; stroke-opacity:1; 
stroke-linecap:round; stroke-linejoin:round;">
<polyline style="fill-rule:evenodd;"
points="62500,41000
62500,40000
61500,40500
62500,41000
" /> 
</g>
<g style="fill:#840000; fill-opacity:0.0; 
stroke:#840000; stroke-width:80; stroke-opacity:1; 
stroke-linecap:round; stroke-linejoin:round;">
<polyline fill="none;"
points="60800,40800
60200,41400
60500,41400
60200,41400
60200,41100
" /> 
<polyline fill="none;"
points="61300,40800
60700,41400
61000,41400
60700,41400
60700,41100
" /> 
<path d="M61500 40500
L60500 40500
" />
<path d="M61140 40380
L60860 40380
" />
<path d="M61000 40380
L61000 39880
L60950 39950
L60900 40000
L60860 40020
" />
<path d="M62500 40500
L63500 40500
" />
<path d="M62860 39920
L62880 39900
L62930 39880
L63050 39880
L63090 39900
L63120 39920
L63140 39970
L63140 40020
L63120 40090
L62830 40380
L63140 40380
" />
</g>
<g style="fill:#008484; fill-opacity:0.0; 
stroke:#008484; stroke-width:80; stroke-opacity:1; 
stroke-linecap:round; stroke-linejoin:round;">
<path d="M61630 39770
L61630 39270
L61750 39270
L61820 39290
L61870 39340
L61890 39390
L61910 39480
L61910 39550
L61890 39650
L61870 39690
L61820 39740
L61750 39770
L61630 39770
" />
<path d="M62370 39270
L62130 39270
L62110 39500
L62130 39480
L62180 39460
L62300 39460
L62340 39480
L62370 39500
L62390 39550
L62390 39670
L62370 39720
L62340 39740
L62300 39770
L62180 39770
L62130 39740
L62110 39720
" />
<path d="M60860 41770
L60860 42120
L60840 42190
L60790 42240
L60720 42270
L60670 42270
" />
<path d="M61100 42270
L61100 41770
" />
<path d="M61380 42270
L61170 41980
" />
<path d="M61380 41770
L61100 42050
" />
<path d="M61550 41770
L61860 41770
L61690 41960
L61770 41960
L61810 41980
L61840 42000
L61860 42050
L61860 42170
L61840 42220
L61810 42240
L61770 42270
L61620 42270
L61580 42240
L61550 42220
" />
<path d="M62170 41770
L62220 41770
L62270 41790
L62290 41810
L62320 41860
L62340 41960
L62340 42080
L62320 42170
L62290 42220
L62270 42240
L62220 42270
L62170 42270
L62130 42240
L62100 42220
L62080 42170
L62060 42080
L62060 41960
L62080 41860
L62100 41810
L62130 41790
L62170 41770
" />
<path d="M62510 41770
L62820 41770
L62650 41960
L62730 41960
L62770 41980
L62800 42000
L62820 42050
L62820 42170
L62800 42220
L62770 42240
L62730 42270
L62580 42270
L62540 42240
L62510 42220
" />
<path d="M63130 41770
L63180 41770
L63230 41790
L63250 41810
L63280 41860
L63300 41960
L63300 42080
L63280 42170
L63250 42220
L63230 42240
L63180 42270
L63130 42270
L63090 42240
L63060 42220
L63040 42170
L63020 42080
L63020 41960
L63040 41860
L63060 41810
L63090 41790
L63130 41770
" />
</g>
<g style="fill:#008484; fill-opacity:0.0; 
stroke:#008484; stroke-width:0; stroke-opacity:1; 
stroke-linecap:round; stroke-linejoin:round;">
</g>
<g style="fill:#840000; fill-opacity:0.0; 
stroke:#840000; stroke-width:0; stroke-opacity:1; 
stroke-linecap:round; stroke-linejoin:round;">
</g>
<g style="fill:#840000; fill-opacity:0.0; 
stroke:#840000; stroke-width:80; stroke-opacity:1; 
stroke-linecap:round; stroke-linejoin:round;">
<polyline fill="none;"
points="56500,41000
56500,40000
" /> 
<polyline fill="none;"
points="56500,40500
57500,40500
" /> 
</g>
<g style="fill:#840000; fill-opacity:1.0; 
stroke:#840000; stroke-width:80; stroke-opacity:1; 
stroke-linecap:round; stroke-linejoin:round;">
<polyline style="fill-rule:evenodd;"
points="57500,41000
57500,40000
56500,40500
57500,41000
" /> 
</g>
<g style="fill:#840000; fill-opacity:0.0; 
stroke:#840000; stroke-width:80; stroke-opacity:1; 
stroke-linecap:round; stroke-linejoin:round;">
<polyline fill="none;"
points="55800,40800
55200,41400
55500,41400
55200,41400
55200,41100
" /> 
<polyline fill="none;"
points="56300,40800
55700,41400
56000,41400
55700,41400
55700,41100
" /> 
<path d="M56500 40500
L55500 40500
" />
<path d="M56140 40380
L55860 40380
" />
<path d="M56000 40380
L56000 39880
L55950 39950
L55900 40000
L55860 40020
" />
<path d="M57500 40500
L58500 40500
" />
<path d="M57860 39920
L57880 39900
L57930 39880
L58050 39880
L58090 39900
L58120 39920
L58140 39970
L58140 40020
L58120 40090
L57830 40380
L58140 40380
" />
</g>
<g style="fill:#008484; fill-opacity:0.0; 
stroke:#008484; stroke-width:80; stroke-opacity:1; 
stroke-linecap:round; stroke-linejoin:round;">
<path d="M56630 39770
L56630 39270
L56750 39270
L56820 39290
L56870 39340
L56890 39390
L56910 39480
L56910 39550
L56890 39650
L56870 39690
L56820 39740
L56750 39770
L56630 39770
" />
<path d="M57340 39430
L57340 39770
" />
<path d="M57220 39240
L57110 39600
L57410 39600
" />
<path d="M55860 41770
L55860 42120
L55840 42190
L55790 42240
L55720 42270
L55670 42270
" />
<path d="M56100 42270
L56100 41770
" />
<path d="M56380 42270
L56170 41980
" />
<path d="M56380 41770
L56100 42050
" />
<path d="M56550 41770
L56860 41770
L56690 41960
L56770 41960
L56810 41980
L56840 42000
L56860 42050
L56860 42170
L56840 42220
L56810 42240
L56770 42270
L56620 42270
L56580 42240
L56550 42220
" />
<path d="M57170 41770
L57220 41770
L57270 41790
L57290 41810
L57320 41860
L57340 41960
L57340 42080
L57320 42170
L57290 42220
L57270 42240
L57220 42270
L57170 42270
L57130 42240
L57100 42220
L57080 42170
L57060 42080
L57060 41960
L57080 41860
L57100 41810
L57130 41790
L57170 41770
" />
<path d="M57510 41770
L57820 41770
L57650 41960
L57730 41960
L57770 41980
L57800 42000
L57820 42050
L57820 42170
L57800 42220
L57770 42240
L57730 42270
L57580 42270
L57540 42240
L57510 42220
" />
<path d="M58130 41770
L58180 41770
L58230 41790
L58250 41810
L58280 41860
L58300 41960
L58300 42080
L58280 42170
L58250 42220
L58230 42240
L58180 42270
L58130 42270
L58090 42240
L58060 42220
L58040 42170
L58020 42080
L58020 41960
L58040 41860
L58060 41810
L58090 41790
L58130 41770
" />
</g>
<g style="fill:#008400; fill-opacity:0.0; 
stroke:#008400; stroke-width:80; stroke-opacity:1; 
stroke-linecap:round; stroke-linejoin:round;">
<path d="M58500 40500
L60500 40500
" />
<path d="M63500 40500
L65500 40500
" />
<path d="M68500 35500
L69500 35500
" />
<path d="M69500 35500
L69500 40500
" />
<path d="M69500 40500
L68500 40500
" />
<path d="M49500 35500
L55500 35500
" />
<path d="M49500 40500
L55500 40500
" />
</g>
<g style="fill:#008400; fill-opacity:0.0; 
stroke:#008400; stroke-width:0; stroke-opacity:1; 
stroke-linecap:round; stroke-linejoin:round;">
</g>
<g style="fill:#840000; fill-opacity:0.0; 
stroke:#840000; stroke-width:0; stroke-opacity:1; 
stroke-linecap:round; stroke-linejoin:round;">
</g>
<g style="fill:#840000; fill-opacity:0.0; 
stroke:#840000; stroke-width:80; stroke-opacity:1; 
stroke-linecap:round; stroke-linejoin:round;">
<rect x="49450" y="32400" width="100" height="600" rx="0" />
<rect x="49000" y="32000" width="1000" height="1000" rx="0" />
<path d="M49500 33000
L49500 34500
" />
<path d="M49380 33610
L49380 33890
" />
<path d="M49380 33750
L48880 33750
L48950 33800
L49000 33850
L49020 33890
" />
</g>
<g style="fill:#008484; fill-opacity:0.0; 
stroke:#008484; stroke-width:80; stroke-opacity:1; 
stroke-linecap:round; stroke-linejoin:round;">
<path d="M48330 32180
L48330 32530
L48310 32600
L48260 32650
L48190 32680
L48140 32680
" />
<path d="M48830 32680
L48550 32680
" />
<path d="M48690 32680
L48690 32180
L48640 32250
L48590 32300
L48550 32320
" />
<path d="M48240 31680
L48000 31680
L48000 31180
" />
<path d="M48400 31410
L48570 31410
" />
<path d="M48640 31680
L48400 31680
L48400 31180
L48640 31180
" />
<path d="M48850 31680
L48850 31180
L48970 31180
L49040 31200
L49090 31250
L49110 31300
L49130 31390
L49130 31460
L49110 31560
L49090 31600
L49040 31650
L48970 31680
L48850 31680
" />
<path d="M49230 31720
L49610 31720
" />
<path d="M49730 31680
L49730 31180
L49920 31180
L49970 31200
L49990 31220
L50010 31270
L50010 31340
L49990 31390
L49970 31410
L49920 31440
L49730 31440
" />
<path d="M50320 31180
L50420 31180
L50470 31200
L50510 31250
L50540 31340
L50540 31510
L50510 31600
L50470 31650
L50420 31680
L50320 31680
L50280 31650
L50230 31600
L50210 31510
L50210 31340
L50230 31250
L50280 31200
L50320 31180
" />
<path d="M50730 31650
L50800 31680
L50920 31680
L50960 31650
L50990 31630
L51010 31580
L51010 31530
L50990 31490
L50960 31460
L50920 31440
L50820 31410
L50770 31390
L50750 31370
L50730 31320
L50730 31270
L50750 31220
L50770 31200
L50820 31180
L50940 31180
L51010 31200
" />
</g>
<g style="fill:#008400; fill-opacity:0.0; 
stroke:#008400; stroke-width:80; stroke-opacity:1; 
stroke-linecap:round; stroke-linejoin:round;">
<path d="M49500 34500
L49500 35500
" />
</g>
<g style="fill:#008400; fill-opacity:0.0; 
stroke:#008400; stroke-width:0; stroke-opacity:1; 
stroke-linecap:round; stroke-linejoin:round;">
</g>
<g style="fill:#840000; fill-opacity:0.0; 
stroke:#840000; stroke-width:0; stroke-opacity:1; 
stroke-linecap:round; stroke-linejoin:round;">
</g>
<g style="fill:#840000; fill-opacity:0.0; 
stroke:#840000; stroke-width:80; stroke-opacity:1; 
stroke-linecap:round; stroke-linejoin:round;">
<rect x="49450" y="43000" width="100" height="600" rx="0" />
<rect x="49000" y="43000" width="1000" height="1000" rx="0" />
<path d="M49500 43000
L49500 41500
" />
<path d="M49380 42110
L49380 42390
" />
<path d="M49380 42250
L48880 42250
L48950 42300
L49000 42350
L49020 42390
" />
</g>
<g style="fill:#008484; fill-opacity:0.0; 
stroke:#008484; stroke-width:80; stroke-opacity:1; 
stroke-linecap:round; stroke-linejoin:round;">
<path d="M48330 43270
L48330 43620
L48310 43690
L48260 43740
L48190 43770
L48140 43770
" />
<path d="M48550 43310
L48570 43290
L48620 43270
L48740 43270
L48780 43290
L48810 43310
L48830 43360
L48830 43410
L48810 43480
L48520 43770
L48830 43770
" />
<path d="M48260 44770
L48020 44770
L48020 44270
" />
<path d="M48420 44500
L48590 44500
" />
<path d="M48660 44770
L48420 44770
L48420 44270
L48660 44270
" />
<path d="M48870 44770
L48870 44270
L48990 44270
L49060 44290
L49110 44340
L49130 44390
L49150 44480
L49150 44550
L49130 44650
L49110 44690
L49060 44740
L48990 44770
L48870 44770
" />
<path d="M49250 44810
L49630 44810
" />
<path d="M49750 44770
L49750 44270
L50030 44770
L50030 44270
" />
<path d="M50270 44500
L50440 44500
" />
<path d="M50510 44770
L50270 44770
L50270 44270
L50510 44270
" />
<path d="M50980 44290
L50930 44270
L50860 44270
L50790 44290
L50740 44340
L50720 44390
L50700 44480
L50700 44550
L50720 44650
L50740 44690
L50790 44740
L50860 44770
L50910 44770
L50980 44740
L51000 44720
L51000 44550
L50910 44550
" />
</g>
<g style="fill:#008400; fill-opacity:0.0; 
stroke:#008400; stroke-width:80; stroke-opacity:1; 
stroke-linecap:round; stroke-linejoin:round;">
<path d="M49500 41500
L49500 40500
" />
</g> 
</svg>
